<svg xmlns="http://www.w3.org/2000/svg" xmlns:xlink="http://www.w3.org/1999/xlink" width="1080" zoomAndPan="magnify" viewBox="0 0 810 374.999991" height="500" preserveAspectRatio="xMidYMid meet" version="1.0"><defs><g/><clipPath id="a6a4a47af7"><path d="M 8 190 L 155 190 L 155 337.605469 L 8 337.605469 Z M 8 190 " clip-rule="nonzero"/></clipPath><clipPath id="c692efa2dd"><path d="M 324 190 L 475 190 L 475 337.605469 L 324 337.605469 Z M 324 190 " clip-rule="nonzero"/></clipPath><clipPath id="85c144381f"><path d="M 496 190 L 511 190 L 511 337.605469 L 496 337.605469 Z M 496 190 " clip-rule="nonzero"/></clipPath><clipPath id="d30feaff5f"><path d="M 690 186 L 801 186 L 801 337.605469 L 690 337.605469 Z M 690 186 " clip-rule="nonzero"/></clipPath><clipPath id="ecc663d0d7"><path d="M 592 100.605469 L 639 100.605469 L 639 182 L 592 182 Z M 592 100.605469 " clip-rule="nonzero"/></clipPath><clipPath id="1561f0b6f5"><path d="M 644 100.605469 L 691 100.605469 L 691 162 L 644 162 Z M 644 100.605469 " clip-rule="nonzero"/></clipPath><clipPath id="44778585b7"><path d="M 701 100.605469 L 734 100.605469 L 734 161 L 701 161 Z M 701 100.605469 " clip-rule="nonzero"/></clipPath><clipPath id="7a73f10b7c"><path d="M 760 100.605469 L 802 100.605469 L 802 163 L 760 163 Z M 760 100.605469 " clip-rule="nonzero"/></clipPath><clipPath id="dbbbad14d3"><path d="M 460 100.605469 L 548 100.605469 L 548 183 L 460 183 Z M 460 100.605469 " clip-rule="nonzero"/></clipPath></defs><g clip-path="url(#a6a4a47af7)"><path fill="#000000" d="M 139.972656 315.351562 L 19.75 190.269531 L 8.820312 190.269531 L 8.820312 337.488281 L 23.027344 337.488281 L 23.027344 212.40625 L 143.25 337.488281 L 154.179688 337.488281 L 154.179688 190.269531 L 139.972656 190.269531 Z M 139.972656 315.351562 " fill-opacity="1" fill-rule="nonzero"/></g><path fill="#000000" d="M 300.625 211.296875 C 297.402344 207.921875 293.855469 204.929688 289.988281 202.316406 C 286.121094 199.703125 282.019531 197.53125 277.683594 195.804688 C 268.542969 192.242188 259.070312 190.394531 249.261719 190.269531 C 239.453125 190.398438 229.984375 192.242188 220.84375 195.804688 C 216.511719 197.535156 212.414062 199.703125 208.546875 202.316406 C 204.679688 204.929688 201.136719 207.921875 197.914062 211.296875 C 194.566406 214.582031 191.605469 218.1875 189.027344 222.105469 C 186.445312 226.023438 184.308594 230.167969 182.613281 234.542969 C 179.089844 243.8125 177.257812 253.40625 177.128906 263.324219 C 177.25 273.238281 179.074219 282.832031 182.589844 292.105469 C 184.289062 296.480469 186.429688 300.625 189.011719 304.546875 C 191.597656 308.464844 194.5625 312.066406 197.914062 315.351562 C 201.140625 318.730469 204.6875 321.722656 208.558594 324.335938 C 212.425781 326.949219 216.53125 329.121094 220.867188 330.851562 C 230.007812 334.414062 239.480469 336.257812 249.285156 336.386719 C 259.085938 336.253906 268.550781 334.40625 277.683594 330.847656 C 282.019531 329.117188 286.125 326.945312 289.992188 324.332031 C 293.863281 321.71875 297.410156 318.722656 300.636719 315.347656 C 303.984375 312.0625 306.945312 308.460938 309.523438 304.542969 C 312.105469 300.625 314.242188 296.476562 315.9375 292.105469 C 319.453125 282.832031 321.273438 273.238281 321.398438 263.324219 C 321.273438 253.410156 319.453125 243.816406 315.9375 234.546875 C 312.113281 225.953125 307.011719 218.203125 300.625 211.296875 Z M 302.820312 286.574219 C 299.71875 293.730469 295.34375 300.003906 289.707031 305.394531 C 284.226562 310.820312 278.03125 315.246094 271.125 318.679688 C 263.789062 321.773438 256.136719 323.25 248.171875 323.105469 C 244.230469 323.230469 240.324219 322.917969 236.449219 322.167969 C 232.578125 321.421875 228.832031 320.257812 225.21875 318.679688 C 218.113281 315.515625 211.914062 311.085938 206.617188 305.386719 C 201.242188 299.8125 196.871094 293.539062 193.5 286.570312 C 191.941406 282.898438 190.796875 279.101562 190.0625 275.183594 C 189.328125 271.261719 189.027344 267.3125 189.152344 263.324219 C 189.027344 259.339844 189.328125 255.386719 190.0625 251.46875 C 190.796875 247.546875 191.941406 243.753906 193.5 240.082031 C 196.605469 232.925781 200.976562 226.652344 206.617188 221.261719 C 212.097656 215.835938 218.289062 211.40625 225.195312 207.976562 C 228.808594 206.394531 232.554688 205.234375 236.425781 204.484375 C 240.300781 203.738281 244.207031 203.425781 248.148438 203.546875 C 252.089844 203.425781 256 203.738281 259.871094 204.484375 C 263.746094 205.234375 267.488281 206.394531 271.101562 207.976562 C 278.199219 211.140625 284.390625 215.570312 289.679688 221.261719 C 295.0625 226.828125 299.441406 233.097656 302.820312 240.0625 C 305.871094 247.511719 307.320312 255.257812 307.171875 263.304688 C 307.621094 267.3125 307.476562 271.300781 306.738281 275.265625 C 305.996094 279.230469 304.691406 283 302.820312 286.574219 Z M 302.820312 286.574219 " fill-opacity="1" fill-rule="nonzero"/><g clip-path="url(#c692efa2dd)"><path fill="#000000" d="M 397.898438 316.445312 L 338.878906 190.269531 L 324.671875 190.269531 L 392.429688 337.488281 L 403.359375 337.488281 L 474.402344 190.269531 L 459.101562 190.269531 Z M 397.898438 316.445312 " fill-opacity="1" fill-rule="nonzero"/></g><g clip-path="url(#85c144381f)"><path fill="#000000" d="M 496.257812 190.269531 L 510.464844 190.269531 L 510.464844 337.488281 L 496.257812 337.488281 Z M 496.257812 190.269531 " fill-opacity="1" fill-rule="nonzero"/></g><path fill="#000000" d="M 658.003906 211.296875 C 654.78125 207.921875 651.234375 204.929688 647.367188 202.316406 C 643.5 199.703125 639.398438 197.53125 635.0625 195.804688 C 630.546875 193.976562 625.898438 192.597656 621.121094 191.664062 C 616.339844 190.734375 611.515625 190.269531 606.644531 190.269531 C 601.773438 190.269531 596.949219 190.734375 592.167969 191.664062 C 587.390625 192.597656 582.742188 193.976562 578.226562 195.804688 C 573.894531 197.535156 569.792969 199.703125 565.929688 202.316406 C 562.0625 204.929688 558.515625 207.921875 555.292969 211.296875 C 551.945312 214.582031 548.984375 218.1875 546.40625 222.105469 C 543.824219 226.023438 541.6875 230.167969 539.992188 234.542969 C 536.476562 243.8125 534.65625 253.40625 534.53125 263.320312 C 534.65625 273.234375 536.476562 282.828125 539.992188 292.097656 C 541.6875 296.472656 543.824219 300.621094 546.402344 304.542969 C 548.984375 308.460938 551.945312 312.066406 555.292969 315.351562 C 558.519531 318.730469 562.066406 321.722656 565.9375 324.335938 C 569.804688 326.949219 573.910156 329.121094 578.246094 330.851562 C 582.761719 332.679688 587.410156 334.058594 592.1875 334.988281 C 596.96875 335.921875 601.792969 336.386719 606.664062 336.386719 C 611.535156 336.386719 616.359375 335.921875 621.140625 334.988281 C 625.917969 334.058594 630.566406 332.679688 635.082031 330.851562 C 639.417969 329.121094 643.519531 326.949219 647.390625 324.335938 C 651.261719 321.722656 654.808594 318.730469 658.035156 315.351562 C 661.378906 312.066406 664.34375 308.464844 666.921875 304.546875 C 669.503906 300.628906 671.640625 296.480469 673.335938 292.109375 C 676.851562 282.835938 678.671875 273.246094 678.796875 263.328125 C 678.671875 253.414062 676.851562 243.820312 673.335938 234.550781 C 669.507812 225.957031 664.394531 218.203125 658.003906 211.296875 Z M 660.191406 286.570312 C 657.085938 293.726562 652.714844 300 647.074219 305.386719 C 641.59375 310.8125 635.402344 315.242188 628.496094 318.671875 C 624.882812 320.253906 621.140625 321.417969 617.269531 322.164062 C 613.394531 322.910156 609.488281 323.222656 605.546875 323.101562 C 601.605469 323.222656 597.695312 322.910156 593.824219 322.164062 C 589.953125 321.417969 586.207031 320.253906 582.59375 318.671875 C 575.492188 315.511719 569.292969 311.082031 563.996094 305.386719 C 558.621094 299.8125 554.25 293.539062 550.878906 286.570312 C 549.320312 282.898438 548.175781 279.101562 547.441406 275.183594 C 546.707031 271.261719 546.402344 267.3125 546.53125 263.324219 C 546.402344 259.339844 546.707031 255.386719 547.441406 251.46875 C 548.175781 247.546875 549.320312 243.753906 550.878906 240.082031 C 553.984375 232.925781 558.355469 226.652344 563.996094 221.261719 C 569.476562 215.835938 575.667969 211.40625 582.574219 207.976562 C 589.914062 204.882812 597.5625 203.40625 605.527344 203.546875 C 609.46875 203.425781 613.375 203.738281 617.25 204.484375 C 621.121094 205.234375 624.863281 206.398438 628.476562 207.976562 C 635.570312 211.140625 641.765625 215.570312 647.054688 221.261719 C 652.4375 226.828125 656.820312 233.09375 660.199219 240.0625 C 661.757812 243.734375 662.902344 247.527344 663.636719 251.449219 C 664.371094 255.367188 664.675781 259.320312 664.550781 263.304688 C 665 267.3125 664.855469 271.300781 664.117188 275.265625 C 663.375 279.230469 662.070312 283 660.199219 286.574219 Z M 660.191406 286.570312 " fill-opacity="1" fill-rule="nonzero"/><g clip-path="url(#d30feaff5f)"><path fill="#000000" d="M 783.691406 268.859375 C 778.710938 265.015625 773.246094 262.0625 767.300781 260.003906 C 761.304688 257.5 755.109375 255.652344 748.722656 254.46875 C 742.164062 253.363281 736.699219 251.148438 731.234375 250.039062 C 725.773438 247.824219 721.398438 245.613281 717.027344 243.398438 C 713.59375 241.40625 710.679688 238.828125 708.28125 235.664062 C 707.183594 234.453125 706.351562 233.082031 705.785156 231.550781 C 705.21875 230.019531 704.957031 228.4375 705.003906 226.804688 C 705.054688 225.191406 705.359375 223.625 705.917969 222.109375 C 706.480469 220.59375 707.269531 219.207031 708.28125 217.949219 C 709.328125 216.261719 710.597656 214.757812 712.085938 213.441406 C 713.578125 212.125 715.222656 211.050781 717.027344 210.214844 C 721.03125 207.492188 725.402344 205.648438 730.144531 204.679688 C 735.148438 203.296875 740.25 202.605469 745.445312 202.605469 C 750.636719 202.605469 755.738281 203.296875 760.746094 204.679688 C 765.316406 206.054688 769.6875 207.898438 773.859375 210.214844 C 777.292969 212.207031 780.207031 214.785156 782.605469 217.949219 C 783.460938 219.046875 784.078125 220.265625 784.457031 221.601562 C 784.835938 222.941406 784.945312 224.300781 784.789062 225.683594 L 784.789062 230.113281 L 799 230.113281 L 799 225.683594 C 799.050781 222.945312 798.703125 220.253906 797.964844 217.613281 C 797.222656 214.976562 796.117188 212.5 794.648438 210.1875 C 791.472656 205.296875 787.457031 201.242188 782.601562 198.019531 C 777.449219 194.773438 771.984375 192.195312 766.207031 190.28125 C 762.855469 189.183594 759.4375 188.355469 755.957031 187.796875 C 752.472656 187.242188 748.96875 186.960938 745.441406 186.960938 C 741.914062 186.960938 738.410156 187.242188 734.925781 187.796875 C 731.441406 188.355469 728.027344 189.183594 724.675781 190.28125 C 718.121094 194.710938 712.652344 196.925781 708.28125 200.246094 C 703.433594 203.476562 699.425781 207.535156 696.257812 212.425781 C 694.722656 214.707031 693.578125 217.171875 692.835938 219.824219 C 692.09375 222.472656 691.78125 225.171875 691.90625 227.921875 C 691.78125 230.671875 692.09375 233.371094 692.835938 236.023438 C 693.578125 238.671875 694.722656 241.140625 696.257812 243.421875 C 699.480469 247.96875 703.488281 251.65625 708.28125 254.492188 C 713.722656 257.945312 719.550781 260.523438 725.769531 262.226562 C 732.523438 264.730469 739.453125 266.574219 746.554688 267.761719 C 752.019531 268.871094 757.484375 271.085938 762.949219 272.191406 L 776.042969 278.800781 C 777.742188 279.851562 779.242188 281.132812 780.546875 282.644531 C 781.851562 284.15625 782.902344 285.824219 783.699219 287.65625 C 784.808594 289.285156 785.644531 291.042969 786.203125 292.933594 C 786.765625 294.824219 787.019531 296.753906 786.976562 298.726562 C 787.019531 300.359375 786.761719 301.941406 786.191406 303.472656 C 785.625 305.003906 784.792969 306.375 783.699219 307.582031 C 781.300781 310.75 778.386719 313.328125 774.953125 315.316406 C 770.949219 318.039062 766.578125 319.882812 761.835938 320.855469 C 756.613281 321.960938 751.332031 322.515625 745.988281 322.515625 C 740.648438 322.515625 735.367188 321.960938 730.144531 320.855469 C 725.402344 319.882812 721.03125 318.039062 717.027344 315.316406 C 713.59375 313.328125 710.679688 310.75 708.28125 307.582031 C 707.183594 306.375 706.351562 305.003906 705.785156 303.472656 C 705.21875 301.941406 704.960938 300.359375 705.003906 298.726562 L 705.003906 294.316406 L 690.796875 294.316406 L 690.796875 298.746094 C 690.671875 301.496094 690.980469 304.195312 691.722656 306.847656 C 692.46875 309.496094 693.609375 311.960938 695.148438 314.246094 C 698.316406 319.132812 702.324219 323.191406 707.171875 326.421875 C 712.613281 329.875 718.441406 332.453125 724.65625 334.15625 C 731.398438 336.441406 738.328125 337.546875 745.445312 337.480469 C 752.4375 337.347656 759.367188 336.609375 766.230469 335.265625 C 772.355469 333.355469 778.183594 330.777344 783.71875 327.53125 C 786.230469 326.082031 788.503906 324.324219 790.539062 322.257812 C 792.574219 320.191406 794.292969 317.886719 795.703125 315.351562 C 797.3125 312.894531 798.492188 310.246094 799.234375 307.40625 C 799.980469 304.5625 800.253906 301.675781 800.050781 298.746094 C 800.179688 295.648438 799.871094 292.59375 799.132812 289.582031 C 798.394531 286.570312 797.25 283.71875 795.703125 281.03125 C 792.257812 276.425781 788.253906 272.367188 783.691406 268.859375 Z M 783.691406 268.859375 " fill-opacity="1" fill-rule="nonzero"/></g><g clip-path="url(#ecc663d0d7)"><path fill="#000000" d="M 600.078125 153.738281 C 601.078125 154.949219 602.195312 156.035156 603.429688 156.996094 C 604.667969 157.957031 605.992188 158.773438 607.410156 159.441406 C 608.828125 160.109375 610.300781 160.617188 611.828125 160.957031 C 613.359375 161.300781 614.90625 161.472656 616.472656 161.476562 C 628.496094 161.476562 638.328125 150.40625 638.328125 130.480469 C 638.359375 109.460938 629.589844 100.605469 617.570312 100.605469 C 615.886719 100.703125 614.230469 100.972656 612.605469 101.414062 C 610.976562 101.851562 609.410156 102.453125 607.90625 103.214844 C 606.402344 103.976562 604.992188 104.882812 603.671875 105.9375 C 602.355469 106.988281 601.160156 108.164062 600.085938 109.460938 L 600.085938 101.710938 L 592.433594 101.710938 L 592.433594 181.410156 L 601.175781 176.984375 L 601.175781 153.738281 Z M 600.078125 116.105469 C 601.007812 114.953125 602.042969 113.914062 603.191406 112.980469 C 604.34375 112.050781 605.578125 111.253906 606.894531 110.585938 C 608.214844 109.917969 609.589844 109.398438 611.019531 109.027344 C 612.449219 108.652344 613.902344 108.433594 615.378906 108.371094 C 624.125 108.371094 629.589844 116.105469 629.589844 130.507812 C 629.589844 146.003906 625.238281 154.855469 615.378906 154.855469 C 613.851562 154.753906 612.355469 154.476562 610.886719 154.03125 C 609.421875 153.582031 608.027344 152.972656 606.699219 152.207031 C 605.375 151.4375 604.152344 150.53125 603.035156 149.484375 C 601.917969 148.433594 600.929688 147.273438 600.078125 146 Z M 600.078125 116.105469 " fill-opacity="1" fill-rule="nonzero"/></g><g clip-path="url(#1561f0b6f5)"><path fill="#000000" d="M 670.03125 100.605469 C 663.183594 100.777344 656.625 102.253906 650.363281 105.035156 L 653.640625 111.675781 C 658.398438 109.015625 663.496094 107.539062 668.941406 107.25 C 677.683594 107.25 680.964844 111.675781 680.964844 120.53125 L 680.964844 127.195312 C 678.792969 126 676.5 125.121094 674.085938 124.558594 C 671.675781 123.996094 669.230469 123.765625 666.753906 123.875 C 655.824219 123.847656 644.894531 129.382812 644.894531 142.664062 C 644.832031 143.289062 644.804688 143.917969 644.8125 144.546875 C 644.820312 145.175781 644.863281 145.800781 644.941406 146.425781 C 645.015625 147.050781 645.125 147.667969 645.269531 148.28125 C 645.414062 148.894531 645.59375 149.496094 645.804688 150.089844 C 646.011719 150.679688 646.253906 151.261719 646.527344 151.828125 C 646.800781 152.394531 647.105469 152.941406 647.441406 153.476562 C 647.773438 154.007812 648.136719 154.523438 648.527344 155.015625 C 648.917969 155.507812 649.332031 155.980469 649.773438 156.425781 C 650.21875 156.875 650.683594 157.296875 651.171875 157.691406 C 651.65625 158.089844 652.167969 158.457031 652.695312 158.796875 C 653.222656 159.140625 653.769531 159.449219 654.332031 159.730469 C 654.894531 160.011719 655.46875 160.261719 656.0625 160.480469 C 656.652344 160.699219 657.25 160.882812 657.859375 161.035156 C 658.472656 161.1875 659.089844 161.304688 659.710938 161.390625 C 660.335938 161.472656 660.960938 161.523438 661.589844 161.539062 C 662.21875 161.554688 662.84375 161.539062 663.472656 161.484375 C 664.332031 161.558594 665.191406 161.574219 666.050781 161.53125 C 666.910156 161.488281 667.765625 161.382812 668.609375 161.21875 C 669.457031 161.054688 670.289062 160.835938 671.105469 160.554688 C 671.917969 160.277344 672.710938 159.941406 673.480469 159.554688 C 674.25 159.164062 674.988281 158.722656 675.695312 158.230469 C 676.402344 157.738281 677.070312 157.199219 677.703125 156.613281 C 678.335938 156.027344 678.925781 155.402344 679.46875 154.734375 C 680.015625 154.066406 680.511719 153.363281 680.957031 152.628906 L 680.957031 159.269531 L 690.796875 159.269531 L 690.796875 119.425781 C 690.796875 106.140625 683.144531 100.605469 670.03125 100.605469 Z M 682.054688 145.992188 C 681.140625 147.324219 680.082031 148.535156 678.878906 149.617188 C 677.675781 150.699219 676.359375 151.625 674.9375 152.394531 C 673.511719 153.164062 672.019531 153.757812 670.457031 154.171875 C 668.890625 154.585938 667.300781 154.8125 665.683594 154.847656 C 665.273438 154.890625 664.867188 154.910156 664.457031 154.90625 C 664.046875 154.902344 663.636719 154.878906 663.230469 154.828125 C 662.824219 154.78125 662.421875 154.707031 662.019531 154.613281 C 661.621094 154.519531 661.230469 154.402344 660.84375 154.265625 C 660.457031 154.128906 660.082031 153.96875 659.714844 153.789062 C 659.34375 153.609375 658.988281 153.40625 658.640625 153.1875 C 658.296875 152.96875 657.964844 152.726562 657.644531 152.472656 C 657.328125 152.214844 657.023438 151.9375 656.734375 151.648438 C 656.445312 151.355469 656.175781 151.050781 655.921875 150.726562 C 655.667969 150.40625 655.433594 150.070312 655.21875 149.722656 C 655 149.375 654.804688 149.015625 654.628906 148.644531 C 654.453125 148.273438 654.296875 147.894531 654.164062 147.507812 C 654.03125 147.121094 653.917969 146.726562 653.832031 146.328125 C 653.742188 145.925781 653.675781 145.523438 653.628906 145.117188 C 653.585938 144.707031 653.5625 144.300781 653.566406 143.890625 C 653.566406 143.480469 653.59375 143.070312 653.640625 142.664062 C 653.640625 134.929688 659.101562 131.59375 666.753906 131.59375 C 669.402344 131.492188 672.023438 131.722656 674.617188 132.285156 C 677.207031 132.847656 679.6875 133.726562 682.054688 134.914062 Z M 682.054688 145.992188 " fill-opacity="1" fill-rule="nonzero"/></g><g clip-path="url(#44778585b7)"><path fill="#000000" d="M 710.46875 126.0625 C 710.46875 114.992188 714.816406 108.351562 722.488281 108.351562 C 725.613281 108.273438 728.527344 109.011719 731.234375 110.566406 L 733.414062 101.710938 C 730.589844 100.632812 727.675781 100.261719 724.671875 100.605469 C 723.925781 100.566406 723.183594 100.585938 722.445312 100.660156 C 721.703125 100.734375 720.972656 100.863281 720.253906 101.050781 C 719.535156 101.238281 718.832031 101.476562 718.148438 101.769531 C 717.464844 102.0625 716.804688 102.40625 716.175781 102.800781 C 715.542969 103.195312 714.945312 103.632812 714.378906 104.117188 C 713.816406 104.601562 713.292969 105.128906 712.808594 105.691406 C 712.324219 106.257812 711.882812 106.855469 711.492188 107.488281 C 711.097656 108.121094 710.753906 108.777344 710.460938 109.460938 L 710.460938 101.710938 L 701.722656 101.710938 L 701.722656 160.378906 L 710.46875 160.378906 Z M 710.46875 126.0625 " fill-opacity="1" fill-rule="nonzero"/></g><path fill="#000000" d="M 743.253906 101.710938 L 752 101.710938 L 752 160.382812 L 743.253906 160.382812 Z M 743.253906 101.710938 " fill-opacity="1" fill-rule="nonzero"/><g clip-path="url(#7a73f10b7c)"><path fill="#000000" d="M 780.410156 154.847656 C 778.976562 154.832031 777.558594 154.679688 776.15625 154.378906 C 774.753906 154.082031 773.394531 153.648438 772.078125 153.078125 C 770.761719 152.507812 769.515625 151.8125 768.339844 150.992188 C 767.164062 150.171875 766.082031 149.242188 765.089844 148.203125 L 760.738281 154.847656 C 762.171875 156.082031 763.703125 157.183594 765.332031 158.148438 C 766.960938 159.109375 768.664062 159.921875 770.4375 160.582031 C 772.210938 161.242188 774.03125 161.742188 775.894531 162.078125 C 777.757812 162.414062 779.632812 162.582031 781.527344 162.582031 C 791.363281 162.582031 801.199219 157.046875 801.199219 145.976562 C 801.199219 136.011719 794.644531 132.691406 783.710938 127.15625 C 773.875 122.726562 770.597656 120.511719 770.597656 116.085938 C 770.597656 111.65625 773.875 108.351562 780.433594 108.351562 C 783.070312 108.332031 785.613281 108.800781 788.070312 109.757812 C 790.523438 110.714844 792.714844 112.089844 794.644531 113.886719 L 798.992188 107.242188 C 796.335938 105.164062 793.417969 103.558594 790.238281 102.421875 C 787.058594 101.285156 783.785156 100.679688 780.410156 100.605469 C 769.480469 100.605469 761.832031 106.140625 761.832031 114.996094 C 761.832031 123.855469 766.183594 128.28125 778.226562 132.710938 C 788.0625 137.140625 791.339844 139.351562 791.339844 144.886719 C 792.433594 151.527344 788.0625 154.847656 780.410156 154.847656 Z M 780.410156 154.847656 " fill-opacity="1" fill-rule="nonzero"/></g><g clip-path="url(#dbbbad14d3)"><path fill="#000000" d="M 529.046875 100.605469 C 515.933594 100.605469 503.910156 119.425781 503.910156 119.425781 C 503.910156 119.425781 492.980469 100.605469 478.769531 100.605469 C 464.5625 100.605469 460.191406 110.570312 460.191406 121.636719 C 460.191406 154.84375 497.351562 182.515625 503.910156 182.515625 C 510.46875 182.515625 547.628906 154.847656 547.628906 121.636719 C 548.71875 110.566406 543.277344 100.605469 529.046875 100.605469 " fill-opacity="1" fill-rule="nonzero"/></g><g fill="#000000" fill-opacity="1"><g transform="translate(47.975949, 84.205719)"><g><path d="M 29.875 -45.453125 C 25.539062 -45.453125 22.1875 -43.828125 19.8125 -40.578125 C 17.4375 -37.328125 16.25 -32.796875 16.25 -26.984375 C 16.25 -14.878906 20.789062 -8.828125 29.875 -8.828125 C 33.6875 -8.828125 38.300781 -9.78125 43.71875 -11.6875 L 43.71875 -2.046875 C 39.257812 -0.179688 34.285156 0.75 28.796875 0.75 C 20.898438 0.75 14.863281 -1.644531 10.6875 -6.4375 C 6.507812 -11.226562 4.421875 -18.097656 4.421875 -27.046875 C 4.421875 -32.691406 5.445312 -37.632812 7.5 -41.875 C 9.550781 -46.125 12.5 -49.378906 16.34375 -51.640625 C 20.195312 -53.898438 24.707031 -55.03125 29.875 -55.03125 C 35.144531 -55.03125 40.4375 -53.757812 45.75 -51.21875 L 42.046875 -41.859375 C 40.015625 -42.828125 37.972656 -43.664062 35.921875 -44.375 C 33.867188 -45.09375 31.851562 -45.453125 29.875 -45.453125 Z M 29.875 -45.453125 "/></g></g></g><g fill="#000000" fill-opacity="1"><g transform="translate(96.401197, 84.205719)"><g><path d="M 56.078125 -27.203125 C 56.078125 -18.222656 53.847656 -11.316406 49.390625 -6.484375 C 44.941406 -1.660156 38.5625 0.75 30.25 0.75 C 21.9375 0.75 15.550781 -1.660156 11.09375 -6.484375 C 6.644531 -11.316406 4.421875 -18.25 4.421875 -27.28125 C 4.421875 -36.3125 6.648438 -43.207031 11.109375 -47.96875 C 15.578125 -52.726562 21.976562 -55.109375 30.3125 -55.109375 C 38.65625 -55.109375 45.035156 -52.707031 49.453125 -47.90625 C 53.867188 -43.101562 56.078125 -36.203125 56.078125 -27.203125 Z M 16.484375 -27.203125 C 16.484375 -21.140625 17.628906 -16.570312 19.921875 -13.5 C 22.222656 -10.4375 25.664062 -8.90625 30.25 -8.90625 C 39.425781 -8.90625 44.015625 -15.003906 44.015625 -27.203125 C 44.015625 -39.421875 39.445312 -45.53125 30.3125 -45.53125 C 25.738281 -45.53125 22.289062 -43.988281 19.96875 -40.90625 C 17.644531 -37.832031 16.484375 -33.265625 16.484375 -27.203125 Z M 16.484375 -27.203125 "/></g></g></g><g fill="#000000" fill-opacity="1"><g transform="translate(156.886365, 84.205719)"><g><path d="M 51.84375 -27.640625 C 51.84375 -18.710938 49.300781 -11.875 44.21875 -7.125 C 39.132812 -2.375 31.789062 0 22.1875 0 L 6.828125 0 L 6.828125 -54.25 L 23.859375 -54.25 C 32.710938 -54.25 39.585938 -51.910156 44.484375 -47.234375 C 49.390625 -42.566406 51.84375 -36.035156 51.84375 -27.640625 Z M 39.890625 -27.34375 C 39.890625 -39 34.742188 -44.828125 24.453125 -44.828125 L 18.328125 -44.828125 L 18.328125 -9.5 L 23.265625 -9.5 C 34.347656 -9.5 39.890625 -15.445312 39.890625 -27.34375 Z M 39.890625 -27.34375 "/></g></g></g><g fill="#000000" fill-opacity="1"><g transform="translate(213.141282, 84.205719)"><g><path d="M 6.828125 0 L 6.828125 -54.25 L 18.328125 -54.25 L 18.328125 0 Z M 6.828125 0 "/></g></g></g><g fill="#000000" fill-opacity="1"><g transform="translate(238.300143, 84.205719)"><g><path d="M 27.421875 -30.46875 L 48.953125 -30.46875 L 48.953125 -2.34375 C 45.460938 -1.195312 42.175781 -0.394531 39.09375 0.0625 C 36.007812 0.519531 32.863281 0.75 29.65625 0.75 C 21.46875 0.75 15.210938 -1.65625 10.890625 -6.46875 C 6.578125 -11.28125 4.421875 -18.191406 4.421875 -27.203125 C 4.421875 -35.960938 6.925781 -42.789062 11.9375 -47.6875 C 16.945312 -52.582031 23.890625 -55.03125 32.765625 -55.03125 C 38.335938 -55.03125 43.707031 -53.914062 48.875 -51.6875 L 45.046875 -42.484375 C 41.085938 -44.460938 36.96875 -45.453125 32.6875 -45.453125 C 27.71875 -45.453125 23.734375 -43.78125 20.734375 -40.4375 C 17.742188 -37.101562 16.25 -32.617188 16.25 -26.984375 C 16.25 -21.085938 17.453125 -16.585938 19.859375 -13.484375 C 22.273438 -10.378906 25.785156 -8.828125 30.390625 -8.828125 C 32.796875 -8.828125 35.234375 -9.078125 37.703125 -9.578125 L 37.703125 -20.890625 L 27.421875 -20.890625 Z M 27.421875 -30.46875 "/></g></g></g><g fill="#000000" fill-opacity="1"><g transform="translate(293.330532, 84.205719)"><g><path d="M 56.078125 -27.203125 C 56.078125 -18.222656 53.847656 -11.316406 49.390625 -6.484375 C 44.941406 -1.660156 38.5625 0.75 30.25 0.75 C 21.9375 0.75 15.550781 -1.660156 11.09375 -6.484375 C 6.644531 -11.316406 4.421875 -18.25 4.421875 -27.28125 C 4.421875 -36.3125 6.648438 -43.207031 11.109375 -47.96875 C 15.578125 -52.726562 21.976562 -55.109375 30.3125 -55.109375 C 38.65625 -55.109375 45.035156 -52.707031 49.453125 -47.90625 C 53.867188 -43.101562 56.078125 -36.203125 56.078125 -27.203125 Z M 16.484375 -27.203125 C 16.484375 -21.140625 17.628906 -16.570312 19.921875 -13.5 C 22.222656 -10.4375 25.664062 -8.90625 30.25 -8.90625 C 39.425781 -8.90625 44.015625 -15.003906 44.015625 -27.203125 C 44.015625 -39.421875 39.445312 -45.53125 30.3125 -45.53125 C 25.738281 -45.53125 22.289062 -43.988281 19.96875 -40.90625 C 17.644531 -37.832031 16.484375 -33.265625 16.484375 -27.203125 Z M 16.484375 -27.203125 "/></g></g></g><g fill="#000000" fill-opacity="1"><g transform="translate(353.815712, 84.205719)"><g><path d="M 4.34375 -5.3125 C 4.34375 -7.382812 4.898438 -8.953125 6.015625 -10.015625 C 7.128906 -11.078125 8.75 -11.609375 10.875 -11.609375 C 12.925781 -11.609375 14.515625 -11.0625 15.640625 -9.96875 C 16.765625 -8.882812 17.328125 -7.332031 17.328125 -5.3125 C 17.328125 -3.351562 16.757812 -1.8125 15.625 -0.6875 C 14.488281 0.4375 12.90625 1 10.875 1 C 8.789062 1 7.179688 0.453125 6.046875 -0.640625 C 4.910156 -1.742188 4.34375 -3.300781 4.34375 -5.3125 Z M 4.34375 -35.953125 C 4.34375 -38.035156 4.898438 -39.609375 6.015625 -40.671875 C 7.128906 -41.734375 8.75 -42.265625 10.875 -42.265625 C 12.925781 -42.265625 14.515625 -41.71875 15.640625 -40.625 C 16.765625 -39.539062 17.328125 -37.984375 17.328125 -35.953125 C 17.328125 -33.953125 16.75 -32.398438 15.59375 -31.296875 C 14.445312 -30.203125 12.875 -29.65625 10.875 -29.65625 C 8.789062 -29.65625 7.179688 -30.195312 6.046875 -31.28125 C 4.910156 -32.375 4.34375 -33.929688 4.34375 -35.953125 Z M 4.34375 -35.953125 "/></g></g></g><g fill="#000000" fill-opacity="1"><g transform="translate(375.486471, 84.205719)"><g/></g></g><g fill="#000000" fill-opacity="1"><g transform="translate(395.227643, 84.205719)"><g><path d="M 31.390625 0 L 19.921875 0 L 19.921875 -31.390625 L 20.046875 -36.546875 L 20.21875 -42.1875 C 18.320312 -40.289062 17 -39.046875 16.25 -38.453125 L 10.015625 -33.4375 L 4.484375 -40.34375 L 21.96875 -54.25 L 31.390625 -54.25 Z M 31.390625 0 "/></g></g></g><g fill="#000000" fill-opacity="1"><g transform="translate(438.606264, 84.205719)"><g><path d="M 21.75 -54.953125 C 26.945312 -54.953125 31.132812 -53.769531 34.3125 -51.40625 C 37.488281 -49.050781 39.078125 -45.867188 39.078125 -41.859375 C 39.078125 -39.085938 38.304688 -36.617188 36.765625 -34.453125 C 35.234375 -32.285156 32.765625 -30.351562 29.359375 -28.65625 C 33.410156 -26.476562 36.320312 -24.207031 38.09375 -21.84375 C 39.863281 -19.476562 40.75 -16.882812 40.75 -14.0625 C 40.75 -9.613281 39.003906 -6.03125 35.515625 -3.3125 C 32.023438 -0.601562 27.4375 0.75 21.75 0.75 C 15.8125 0.75 11.144531 -0.507812 7.75 -3.03125 C 4.363281 -5.5625 2.671875 -9.140625 2.671875 -13.765625 C 2.671875 -16.859375 3.492188 -19.601562 5.140625 -22 C 6.785156 -24.40625 9.425781 -26.523438 13.0625 -28.359375 C 9.96875 -30.304688 7.738281 -32.394531 6.375 -34.625 C 5.019531 -36.851562 4.34375 -39.289062 4.34375 -41.9375 C 4.34375 -45.820312 5.945312 -48.960938 9.15625 -51.359375 C 12.375 -53.753906 16.570312 -54.953125 21.75 -54.953125 Z M 13.28125 -14.4375 C 13.28125 -12.3125 14.019531 -10.65625 15.5 -9.46875 C 16.988281 -8.28125 19.019531 -7.6875 21.59375 -7.6875 C 24.4375 -7.6875 26.5625 -8.296875 27.96875 -9.515625 C 29.382812 -10.742188 30.09375 -12.359375 30.09375 -14.359375 C 30.09375 -16.015625 29.394531 -17.566406 28 -19.015625 C 26.601562 -20.460938 24.332031 -22.003906 21.1875 -23.640625 C 15.914062 -21.210938 13.28125 -18.144531 13.28125 -14.4375 Z M 21.671875 -46.578125 C 19.710938 -46.578125 18.132812 -46.070312 16.9375 -45.0625 C 15.738281 -44.0625 15.140625 -42.722656 15.140625 -41.046875 C 15.140625 -39.554688 15.613281 -38.222656 16.5625 -37.046875 C 17.519531 -35.878906 19.25 -34.675781 21.75 -33.4375 C 24.175781 -34.570312 25.867188 -35.734375 26.828125 -36.921875 C 27.796875 -38.109375 28.28125 -39.484375 28.28125 -41.046875 C 28.28125 -42.753906 27.660156 -44.101562 26.421875 -45.09375 C 25.179688 -46.082031 23.597656 -46.578125 21.671875 -46.578125 Z M 21.671875 -46.578125 "/></g></g></g><g fill="#000000" fill-opacity="1"><g transform="translate(481.984908, 84.205719)"><g><path d="M 8.421875 0 L 28.796875 -44.53125 L 2.046875 -44.53125 L 2.046875 -54.1875 L 40.96875 -54.1875 L 40.96875 -46.984375 L 20.453125 0 Z M 8.421875 0 "/></g></g></g><g fill="#000000" fill-opacity="1"><g transform="translate(525.363552, 84.205719)"><g><path d="M 31.390625 0 L 19.921875 0 L 19.921875 -31.390625 L 20.046875 -36.546875 L 20.21875 -42.1875 C 18.320312 -40.289062 17 -39.046875 16.25 -38.453125 L 10.015625 -33.4375 L 4.484375 -40.34375 L 21.96875 -54.25 L 31.390625 -54.25 Z M 31.390625 0 "/></g></g></g><g fill="#000000" fill-opacity="1"><g transform="translate(568.742196, 84.205719)"><g><path d="M 31.390625 0 L 19.921875 0 L 19.921875 -31.390625 L 20.046875 -36.546875 L 20.21875 -42.1875 C 18.320312 -40.289062 17 -39.046875 16.25 -38.453125 L 10.015625 -33.4375 L 4.484375 -40.34375 L 21.96875 -54.25 L 31.390625 -54.25 Z M 31.390625 0 "/></g></g></g><g fill="#000000" fill-opacity="1"><g transform="translate(612.120841, 84.205719)"><g><path d="M 8.421875 0 L 28.796875 -44.53125 L 2.046875 -44.53125 L 2.046875 -54.1875 L 40.96875 -54.1875 L 40.96875 -46.984375 L 20.453125 0 Z M 8.421875 0 "/></g></g></g><g fill="#000000" fill-opacity="1"><g transform="translate(655.499485, 84.205719)"><g><path d="M 40.671875 -27.125 C 40.671875 -17.65625 39.117188 -10.640625 36.015625 -6.078125 C 32.910156 -1.523438 28.128906 0.75 21.671875 0.75 C 15.410156 0.75 10.691406 -1.597656 7.515625 -6.296875 C 4.335938 -11.003906 2.75 -17.945312 2.75 -27.125 C 2.75 -36.695312 4.296875 -43.753906 7.390625 -48.296875 C 10.484375 -52.835938 15.242188 -55.109375 21.671875 -55.109375 C 27.929688 -55.109375 32.660156 -52.734375 35.859375 -47.984375 C 39.066406 -43.234375 40.671875 -36.28125 40.671875 -27.125 Z M 14.140625 -27.125 C 14.140625 -20.46875 14.710938 -15.695312 15.859375 -12.8125 C 17.015625 -9.9375 18.953125 -8.5 21.671875 -8.5 C 24.347656 -8.5 26.28125 -9.957031 27.46875 -12.875 C 28.65625 -15.789062 29.25 -20.539062 29.25 -27.125 C 29.25 -33.78125 28.644531 -38.5625 27.4375 -41.46875 C 26.238281 -44.375 24.316406 -45.828125 21.671875 -45.828125 C 18.972656 -45.828125 17.039062 -44.375 15.875 -41.46875 C 14.71875 -38.5625 14.140625 -33.78125 14.140625 -27.125 Z M 14.140625 -27.125 "/></g></g></g><g fill="#000000" fill-opacity="1"><g transform="translate(698.878129, 84.205719)"><g><path d="M 40.96875 0 L 3.046875 0 L 3.046875 -7.984375 L 16.65625 -21.75 C 20.695312 -25.875 23.332031 -28.734375 24.5625 -30.328125 C 25.800781 -31.929688 26.691406 -33.410156 27.234375 -34.765625 C 27.785156 -36.128906 28.0625 -37.539062 28.0625 -39 C 28.0625 -41.175781 27.457031 -42.796875 26.25 -43.859375 C 25.050781 -44.921875 23.453125 -45.453125 21.453125 -45.453125 C 19.347656 -45.453125 17.304688 -44.96875 15.328125 -44 C 13.347656 -43.039062 11.28125 -41.671875 9.125 -39.890625 L 2.890625 -47.28125 C 5.566406 -49.550781 7.78125 -51.15625 9.53125 -52.09375 C 11.289062 -53.039062 13.207031 -53.765625 15.28125 -54.265625 C 17.363281 -54.773438 19.691406 -55.03125 22.265625 -55.03125 C 25.648438 -55.03125 28.640625 -54.410156 31.234375 -53.171875 C 33.835938 -51.941406 35.859375 -50.210938 37.296875 -47.984375 C 38.734375 -45.753906 39.453125 -43.207031 39.453125 -40.34375 C 39.453125 -37.84375 39.007812 -35.492188 38.125 -33.296875 C 37.25 -31.109375 35.890625 -28.863281 34.046875 -26.5625 C 32.203125 -24.269531 28.957031 -20.992188 24.3125 -16.734375 L 17.328125 -10.171875 L 17.328125 -9.65625 L 40.96875 -9.65625 Z M 40.96875 0 "/></g></g></g><g fill="#000000" fill-opacity="1"><g transform="translate(742.26497, 84.205719)"><g/></g></g></svg>