<svg xmlns="http://www.w3.org/2000/svg" xmlns:xlink="http://www.w3.org/1999/xlink" width="300" zoomAndPan="magnify" viewBox="0 0 224.87999 149.999998" height="200" preserveAspectRatio="xMidYMid meet" version="1.0"><defs><g/><clipPath id="92cd927988"><path d="M 23.558594 98 L 57 98 L 57 131.125 L 23.558594 131.125 Z M 23.558594 98 " clip-rule="nonzero"/></clipPath><clipPath id="c2894a5a0a"><path d="M 94 98 L 128 98 L 128 131.125 L 94 131.125 Z M 94 98 " clip-rule="nonzero"/></clipPath><clipPath id="bc4ad84f2c"><path d="M 132 98 L 136 98 L 136 131.125 L 132 131.125 Z M 132 98 " clip-rule="nonzero"/></clipPath><clipPath id="48d6c4385f"><path d="M 176 97 L 201 97 L 201 131.125 L 176 131.125 Z M 176 97 " clip-rule="nonzero"/></clipPath><clipPath id="7e0a2dc252"><path d="M 154 77.902344 L 165 77.902344 L 165 97 L 154 97 Z M 154 77.902344 " clip-rule="nonzero"/></clipPath><clipPath id="de6abb4bff"><path d="M 166 77.902344 L 177 77.902344 L 177 92 L 166 92 Z M 166 77.902344 " clip-rule="nonzero"/></clipPath><clipPath id="f8b795c54b"><path d="M 178 77.902344 L 186 77.902344 L 186 92 L 178 92 Z M 178 77.902344 " clip-rule="nonzero"/></clipPath><clipPath id="80b2f81e62"><path d="M 191 77.902344 L 201 77.902344 L 201 92 L 191 92 Z M 191 77.902344 " clip-rule="nonzero"/></clipPath><clipPath id="e76b399fd6"><path d="M 124 77.902344 L 145 77.902344 L 145 97 L 124 97 Z M 124 77.902344 " clip-rule="nonzero"/></clipPath><clipPath id="28e4a94bb7"><path d="M 0 30 L 224.761719 30 L 224.761719 33 L 0 33 Z M 0 30 " clip-rule="nonzero"/></clipPath></defs><g clip-path="url(#92cd927988)"><path fill="#ffffff" d="M 53.125 126.152344 L 26.242188 98.050781 L 23.800781 98.050781 L 23.800781 131.125 L 26.976562 131.125 L 26.976562 103.023438 L 53.859375 131.125 L 56.300781 131.125 L 56.300781 98.050781 L 53.125 98.050781 Z M 53.125 126.152344 " fill-opacity="1" fill-rule="nonzero"/></g><path fill="#ffffff" d="M 89.046875 102.773438 C 87.589844 101.238281 85.878906 100.078125 83.917969 99.292969 C 81.875 98.492188 79.753906 98.078125 77.5625 98.050781 C 75.371094 98.078125 73.253906 98.492188 71.207031 99.292969 C 69.25 100.078125 67.539062 101.238281 66.082031 102.773438 C 64.566406 104.265625 63.425781 106.007812 62.660156 107.996094 C 61.871094 110.078125 61.460938 112.234375 61.433594 114.460938 C 61.460938 116.691406 61.867188 118.847656 62.65625 120.929688 C 63.421875 122.917969 64.566406 124.660156 66.082031 126.152344 C 67.539062 127.6875 69.25 128.847656 71.214844 129.632812 C 73.257812 130.433594 75.375 130.847656 77.566406 130.878906 C 79.757812 130.847656 81.875 130.433594 83.917969 129.632812 C 85.878906 128.847656 87.589844 127.6875 89.050781 126.152344 C 90.5625 124.65625 91.703125 122.917969 92.472656 120.929688 C 93.257812 118.847656 93.664062 116.691406 93.691406 114.460938 C 93.664062 112.234375 93.257812 110.078125 92.472656 107.996094 C 91.617188 106.066406 90.476562 104.324219 89.046875 102.773438 Z M 89.539062 119.6875 C 88.84375 121.292969 87.867188 122.703125 86.605469 123.914062 C 85.382812 125.132812 83.996094 126.128906 82.453125 126.898438 C 80.8125 127.59375 79.101562 127.925781 77.320312 127.894531 C 75.535156 127.949219 73.824219 127.617188 72.1875 126.898438 C 70.597656 126.1875 69.210938 125.191406 68.027344 123.914062 C 66.824219 122.660156 65.847656 121.25 65.09375 119.683594 C 64.390625 118.015625 64.066406 116.273438 64.121094 114.460938 C 64.066406 112.652344 64.390625 110.910156 65.09375 109.242188 C 65.789062 107.632812 66.765625 106.222656 68.027344 105.011719 C 69.253906 103.792969 70.636719 102.796875 72.183594 102.027344 C 73.816406 101.308594 75.527344 100.976562 77.3125 101.03125 C 79.097656 100.976562 80.808594 101.308594 82.445312 102.027344 C 84.03125 102.738281 85.417969 103.734375 86.601562 105.011719 C 87.804688 106.261719 88.785156 107.671875 89.539062 109.234375 C 90.222656 110.910156 90.546875 112.652344 90.511719 114.457031 C 90.71875 116.300781 90.394531 118.042969 89.539062 119.6875 Z M 89.539062 119.6875 " fill-opacity="1" fill-rule="nonzero"/><g clip-path="url(#c2894a5a0a)"><path fill="#ffffff" d="M 110.796875 126.398438 L 97.601562 98.050781 L 94.425781 98.050781 L 109.574219 131.125 L 112.019531 131.125 L 127.90625 98.050781 L 124.484375 98.050781 Z M 110.796875 126.398438 " fill-opacity="1" fill-rule="nonzero"/></g><g clip-path="url(#bc4ad84f2c)"><path fill="#ffffff" d="M 132.792969 98.050781 L 135.96875 98.050781 L 135.96875 131.125 L 132.792969 131.125 Z M 132.792969 98.050781 " fill-opacity="1" fill-rule="nonzero"/></g><path fill="#ffffff" d="M 168.957031 102.773438 C 167.5 101.238281 165.789062 100.078125 163.828125 99.292969 C 161.789062 98.464844 159.671875 98.050781 157.476562 98.050781 C 155.277344 98.050781 153.160156 98.464844 151.121094 99.292969 C 149.160156 100.078125 147.449219 101.238281 145.992188 102.773438 C 144.480469 104.265625 143.339844 106.007812 142.570312 107.996094 C 141.785156 110.078125 141.378906 112.234375 141.351562 114.460938 C 141.378906 116.6875 141.785156 118.84375 142.570312 120.925781 C 143.335938 122.917969 144.476562 124.65625 145.992188 126.152344 C 147.453125 127.6875 149.164062 128.847656 151.125 129.632812 C 153.164062 130.464844 155.28125 130.878906 157.480469 130.878906 C 159.675781 130.878906 161.796875 130.464844 163.832031 129.632812 C 165.796875 128.847656 167.507812 127.6875 168.964844 126.152344 C 170.480469 124.660156 171.621094 122.917969 172.386719 120.929688 C 173.171875 118.847656 173.582031 116.691406 173.609375 114.464844 C 173.582031 112.234375 173.171875 110.082031 172.386719 108 C 171.53125 106.066406 170.386719 104.324219 168.957031 102.773438 Z M 169.449219 119.683594 C 168.753906 121.292969 167.777344 122.703125 166.515625 123.914062 C 165.289062 125.132812 163.90625 126.128906 162.359375 126.898438 C 160.722656 127.617188 159.015625 127.949219 157.230469 127.894531 C 155.445312 127.949219 153.734375 127.617188 152.097656 126.898438 C 150.507812 126.1875 149.121094 125.191406 147.9375 123.914062 C 146.738281 122.660156 145.757812 121.25 145.003906 119.683594 C 144.300781 118.015625 143.976562 116.273438 144.03125 114.460938 C 143.976562 112.652344 144.300781 110.910156 145.003906 109.242188 C 145.699219 107.632812 146.675781 106.222656 147.9375 105.011719 C 149.164062 103.792969 150.546875 102.796875 152.09375 102.027344 C 153.734375 101.332031 155.445312 101 157.226562 101.03125 C 159.011719 100.976562 160.71875 101.308594 162.355469 102.027344 C 163.941406 102.738281 165.328125 103.734375 166.511719 105.011719 C 167.714844 106.261719 168.695312 107.671875 169.449219 109.234375 C 170.15625 110.90625 170.480469 112.644531 170.421875 114.457031 C 170.628906 116.300781 170.304688 118.042969 169.449219 119.6875 Z M 169.449219 119.683594 " fill-opacity="1" fill-rule="nonzero"/><g clip-path="url(#48d6c4385f)"><path fill="#ffffff" d="M 197.0625 115.707031 C 195.949219 114.84375 194.726562 114.179688 193.398438 113.714844 C 192.058594 113.152344 190.671875 112.738281 189.242188 112.472656 C 187.777344 112.222656 186.554688 111.726562 185.332031 111.476562 C 184.113281 110.980469 183.132812 110.484375 182.15625 109.984375 C 181.386719 109.539062 180.738281 108.960938 180.199219 108.246094 C 179.691406 107.683594 179.445312 107.019531 179.46875 106.257812 C 179.492188 105.511719 179.734375 104.847656 180.199219 104.269531 C 180.679688 103.492188 181.332031 102.914062 182.15625 102.53125 C 183.050781 101.917969 184.027344 101.503906 185.089844 101.285156 C 187.371094 100.652344 189.652344 100.652344 191.933594 101.285156 C 192.953125 101.59375 193.929688 102.011719 194.863281 102.53125 C 195.632812 102.976562 196.285156 103.558594 196.820312 104.269531 C 197.21875 104.78125 197.382812 105.359375 197.308594 106.007812 L 197.308594 107 L 200.484375 107 L 200.484375 106.007812 C 200.507812 104.746094 200.183594 103.585938 199.511719 102.523438 C 198.800781 101.425781 197.90625 100.515625 196.820312 99.789062 C 195.667969 99.0625 194.445312 98.480469 193.152344 98.050781 C 191.644531 97.554688 190.097656 97.304688 188.511719 97.304688 C 186.921875 97.304688 185.375 97.554688 183.867188 98.050781 C 182.402344 99.046875 181.179688 99.542969 180.199219 100.289062 C 179.117188 101.015625 178.222656 101.929688 177.511719 103.027344 C 176.804688 104.078125 176.480469 105.242188 176.539062 106.507812 C 176.480469 107.777344 176.804688 108.9375 177.511719 109.992188 C 178.234375 111.011719 179.128906 111.839844 180.199219 112.476562 C 181.417969 113.253906 182.722656 113.832031 184.109375 114.214844 C 185.621094 114.777344 187.171875 115.191406 188.757812 115.460938 C 189.980469 115.707031 191.203125 116.207031 192.425781 116.453125 L 195.351562 117.941406 C 196.128906 118.421875 196.699219 119.085938 197.0625 119.929688 C 197.574219 120.679688 197.816406 121.507812 197.796875 122.417969 C 197.816406 123.179688 197.574219 123.84375 197.0625 124.40625 C 196.527344 125.117188 195.875 125.695312 195.109375 126.144531 C 194.214844 126.753906 193.234375 127.171875 192.175781 127.386719 C 189.8125 127.890625 187.453125 127.890625 185.089844 127.386719 C 184.027344 127.171875 183.050781 126.753906 182.15625 126.144531 C 181.386719 125.695312 180.738281 125.117188 180.199219 124.40625 C 179.691406 123.84375 179.445312 123.179688 179.46875 122.417969 L 179.46875 121.425781 L 176.292969 121.425781 L 176.292969 122.421875 C 176.234375 123.691406 176.558594 124.851562 177.265625 125.902344 C 177.972656 127 178.867188 127.914062 179.953125 128.640625 C 181.167969 129.414062 182.472656 129.996094 183.863281 130.378906 C 185.371094 130.890625 186.917969 131.140625 188.511719 131.125 C 190.074219 131.09375 191.625 130.929688 193.160156 130.625 C 194.527344 130.195312 195.832031 129.617188 197.070312 128.886719 C 198.214844 128.226562 199.105469 127.3125 199.75 126.152344 C 200.488281 125.019531 200.8125 123.773438 200.722656 122.421875 C 200.777344 121 200.453125 119.671875 199.75 118.441406 C 198.976562 117.40625 198.082031 116.496094 197.0625 115.707031 Z M 197.0625 115.707031 " fill-opacity="1" fill-rule="nonzero"/></g><g clip-path="url(#7e0a2dc252)"><path fill="#ffffff" d="M 156.007812 89.84375 C 156.457031 90.390625 157.003906 90.820312 157.644531 91.121094 C 158.289062 91.425781 158.964844 91.578125 159.671875 91.578125 C 162.359375 91.578125 164.558594 89.09375 164.558594 84.617188 C 164.566406 79.894531 162.605469 77.902344 159.917969 77.902344 C 159.15625 77.949219 158.4375 78.144531 157.757812 78.488281 C 157.078125 78.835938 156.492188 79.304688 156.007812 79.894531 L 156.007812 78.152344 L 154.296875 78.152344 L 154.296875 96.058594 L 156.253906 95.0625 L 156.253906 89.84375 Z M 156.007812 81.386719 C 156.425781 80.863281 156.933594 80.449219 157.53125 80.144531 C 158.128906 79.84375 158.761719 79.675781 159.429688 79.648438 C 161.382812 79.648438 162.605469 81.386719 162.605469 84.621094 C 162.605469 88.105469 161.632812 90.09375 159.429688 90.09375 C 158.734375 90.046875 158.089844 89.847656 157.488281 89.496094 C 156.886719 89.148438 156.394531 88.683594 156.007812 88.101562 Z M 156.007812 81.386719 " fill-opacity="1" fill-rule="nonzero"/></g><g clip-path="url(#de6abb4bff)"><path fill="#ffffff" d="M 171.648438 77.902344 C 170.117188 77.941406 168.648438 78.273438 167.25 78.898438 L 167.984375 80.390625 C 169.046875 79.792969 170.1875 79.460938 171.402344 79.394531 C 173.359375 79.394531 174.09375 80.390625 174.09375 82.382812 L 174.09375 83.878906 C 173.101562 83.332031 172.042969 83.082031 170.914062 83.132812 C 168.472656 83.125 166.027344 84.371094 166.027344 87.355469 C 166 87.636719 166.003906 87.917969 166.039062 88.199219 C 166.070312 88.480469 166.136719 88.753906 166.230469 89.023438 C 166.324219 89.289062 166.445312 89.542969 166.597656 89.78125 C 166.746094 90.023438 166.921875 90.242188 167.117188 90.445312 C 167.316406 90.648438 167.535156 90.824219 167.773438 90.976562 C 168.007812 91.132812 168.257812 91.257812 168.523438 91.355469 C 168.789062 91.453125 169.0625 91.523438 169.339844 91.5625 C 169.621094 91.597656 169.898438 91.605469 170.179688 91.582031 C 170.96875 91.652344 171.714844 91.507812 172.417969 91.148438 C 173.125 90.789062 173.679688 90.269531 174.089844 89.59375 L 174.089844 91.085938 L 176.292969 91.085938 L 176.292969 82.132812 C 176.292969 79.148438 174.578125 77.902344 171.648438 77.902344 Z M 174.335938 88.101562 C 173.921875 88.710938 173.390625 89.1875 172.746094 89.539062 C 172.097656 89.890625 171.410156 90.074219 170.675781 90.089844 C 170.492188 90.109375 170.308594 90.109375 170.128906 90.085938 C 169.945312 90.0625 169.765625 90.023438 169.59375 89.960938 C 169.421875 89.898438 169.257812 89.816406 169.101562 89.71875 C 168.945312 89.617188 168.804688 89.503906 168.675781 89.371094 C 168.546875 89.242188 168.433594 89.097656 168.335938 88.9375 C 168.238281 88.78125 168.160156 88.617188 168.101562 88.441406 C 168.039062 88.265625 168 88.089844 167.980469 87.90625 C 167.960938 87.71875 167.960938 87.535156 167.984375 87.355469 C 167.984375 85.617188 169.203125 84.867188 170.914062 84.867188 C 172.121094 84.820312 173.261719 85.070312 174.335938 85.613281 Z M 174.335938 88.101562 " fill-opacity="1" fill-rule="nonzero"/></g><g clip-path="url(#f8b795c54b)"><path fill="#ffffff" d="M 180.691406 83.625 C 180.691406 81.136719 181.664062 79.644531 183.378906 79.644531 C 184.074219 79.625 184.726562 79.792969 185.332031 80.140625 L 185.820312 78.152344 C 185.1875 77.910156 184.539062 77.828125 183.867188 77.902344 C 183.53125 77.886719 183.203125 77.917969 182.878906 78.003906 C 182.554688 78.089844 182.25 78.21875 181.964844 78.398438 C 181.683594 78.574219 181.429688 78.792969 181.210938 79.046875 C 180.996094 79.300781 180.820312 79.585938 180.6875 79.894531 L 180.6875 78.152344 L 178.734375 78.152344 L 178.734375 91.332031 L 180.691406 91.332031 Z M 180.691406 83.625 " fill-opacity="1" fill-rule="nonzero"/></g><path fill="#ffffff" d="M 188.019531 78.152344 L 189.976562 78.152344 L 189.976562 91.335938 L 188.019531 91.335938 Z M 188.019531 78.152344 " fill-opacity="1" fill-rule="nonzero"/><g clip-path="url(#80b2f81e62)"><path fill="#ffffff" d="M 196.328125 90.089844 C 195.679688 90.085938 195.058594 89.953125 194.464844 89.691406 C 193.871094 89.433594 193.351562 89.070312 192.902344 88.597656 L 191.929688 90.089844 C 193.265625 91.25 194.816406 91.828125 196.578125 91.828125 C 198.777344 91.828125 200.976562 90.585938 200.976562 88.097656 C 200.976562 85.859375 199.511719 85.113281 197.066406 83.867188 C 194.867188 82.875 194.132812 82.375 194.132812 81.382812 C 194.132812 80.386719 194.867188 79.644531 196.335938 79.644531 C 197.558594 79.636719 198.617188 80.050781 199.511719 80.886719 L 200.484375 79.394531 C 199.261719 78.4375 197.878906 77.9375 196.328125 77.902344 C 193.886719 77.902344 192.175781 79.148438 192.175781 81.136719 C 192.175781 83.128906 193.148438 84.121094 195.839844 85.117188 C 198.039062 86.113281 198.773438 86.609375 198.773438 87.851562 C 199.015625 89.34375 198.039062 90.089844 196.328125 90.089844 Z M 196.328125 90.089844 " fill-opacity="1" fill-rule="nonzero"/></g><g clip-path="url(#e76b399fd6)"><path fill="#ffffff" d="M 140.125 77.902344 C 137.191406 77.902344 134.503906 82.132812 134.503906 82.132812 C 134.503906 82.132812 132.058594 77.902344 128.882812 77.902344 C 125.703125 77.902344 124.726562 80.140625 124.726562 82.628906 C 124.726562 90.089844 133.035156 96.308594 134.503906 96.308594 C 135.96875 96.308594 144.277344 90.089844 144.277344 82.628906 C 144.523438 80.140625 143.304688 77.902344 140.125 77.902344 " fill-opacity="1" fill-rule="nonzero"/></g><g fill="#ffffff" fill-opacity="1"><g transform="translate(44.224207, 65.870097)"><g><path d="M 3.527344 0 L 13.523438 0 L 13.523438 -0.941406 L 10.703125 -0.941406 C 10.113281 -0.941406 9.878906 -1.148438 9.878906 -1.707031 L 9.878906 -20.109375 L 8.9375 -20.109375 C 8.644531 -18.699219 7.4375 -17.199219 5.144531 -17.199219 L 3.527344 -17.199219 L 3.527344 -16.140625 L 7.171875 -16.140625 L 7.171875 -1.707031 C 7.171875 -1.148438 6.9375 -0.941406 6.351562 -0.941406 L 3.527344 -0.941406 Z M 3.527344 0 "/></g></g></g><g fill="#ffffff" fill-opacity="1"><g transform="translate(61.275227, 65.870097)"><g><path d="M 4.175781 -15.875 C 4.175781 -18.226562 6.175781 -19.640625 8.496094 -19.640625 C 10.847656 -19.640625 12.816406 -17.816406 12.816406 -15.347656 C 12.816406 -13.671875 12.316406 -12.199219 10.464844 -11.199219 L 6.671875 -12.640625 C 4.996094 -13.316406 4.175781 -14.199219 4.175781 -15.875 Z M 1.765625 -5.117188 C 1.765625 -1.617188 4.820312 0.46875 8.261719 0.46875 C 12.964844 0.46875 15.464844 -2.617188 15.464844 -6.175781 C 15.464844 -8.4375 13.964844 -9.820312 11.996094 -10.613281 L 11.320312 -10.878906 L 11.320312 -10.996094 C 12.789062 -11.671875 14.699219 -13.171875 14.699219 -15.523438 C 14.699219 -17.992188 12.699219 -20.578125 8.496094 -20.578125 C 5.320312 -20.578125 2 -18.375 2 -15.171875 C 2 -12.964844 3.085938 -11.199219 5.203125 -10.320312 L 5.527344 -10.171875 L 5.527344 -10.054688 C 4.234375 -9.703125 1.765625 -8.347656 1.765625 -5.117188 Z M 3.820312 -5.058594 C 3.820312 -8.027344 4.9375 -9.230469 6.378906 -9.820312 L 10.347656 -8.378906 C 11.878906 -7.761719 13.171875 -6.996094 13.171875 -4.585938 C 13.171875 -3.117188 12.054688 -0.46875 8.585938 -0.46875 C 6.410156 -0.46875 3.820312 -1.644531 3.820312 -5.058594 Z M 3.820312 -5.058594 "/></g></g></g><g fill="#ffffff" fill-opacity="1"><g transform="translate(78.326246, 65.870097)"><g><path d="M 2.644531 -13.992188 L 3.292969 -13.992188 L 3.617188 -15.730469 C 3.820312 -16.785156 4.234375 -17.699219 5.9375 -17.699219 L 12.023438 -17.699219 C 12.582031 -17.699219 12.9375 -17.582031 12.9375 -16.933594 C 12.9375 -15.875 12.257812 -14.347656 11.4375 -13.171875 L 9.085938 -9.789062 C 7.671875 -7.761719 5.996094 -4.96875 5.996094 -2.351562 C 5.996094 -0.589844 6.9375 0.46875 8.320312 0.46875 C 9.585938 0.46875 10.054688 -0.265625 10.054688 -1.382812 C 10.054688 -2.085938 9.90625 -3 9.820312 -3.441406 L 9.644531 -4.46875 C 9.464844 -5.410156 9.464844 -6.027344 9.464844 -6.671875 C 9.464844 -8.320312 10.113281 -9.671875 10.671875 -10.496094 L 12.347656 -13.023438 C 13.964844 -15.464844 14.347656 -18.582031 14.347656 -20.109375 L 3.058594 -20.109375 Z M 2.644531 -13.992188 "/></g></g></g><g fill="#ffffff" fill-opacity="1"><g transform="translate(95.377265, 65.870097)"><g><path d="M 3.527344 0 L 13.523438 0 L 13.523438 -0.941406 L 10.703125 -0.941406 C 10.113281 -0.941406 9.878906 -1.148438 9.878906 -1.707031 L 9.878906 -20.109375 L 8.9375 -20.109375 C 8.644531 -18.699219 7.4375 -17.199219 5.144531 -17.199219 L 3.527344 -17.199219 L 3.527344 -16.140625 L 7.171875 -16.140625 L 7.171875 -1.707031 C 7.171875 -1.148438 6.9375 -0.941406 6.351562 -0.941406 L 3.527344 -0.941406 Z M 3.527344 0 "/></g></g></g><g fill="#ffffff" fill-opacity="1"><g transform="translate(112.428285, 65.870097)"><g><path d="M 3.527344 0 L 13.523438 0 L 13.523438 -0.941406 L 10.703125 -0.941406 C 10.113281 -0.941406 9.878906 -1.148438 9.878906 -1.707031 L 9.878906 -20.109375 L 8.9375 -20.109375 C 8.644531 -18.699219 7.4375 -17.199219 5.144531 -17.199219 L 3.527344 -17.199219 L 3.527344 -16.140625 L 7.171875 -16.140625 L 7.171875 -1.707031 C 7.171875 -1.148438 6.9375 -0.941406 6.351562 -0.941406 L 3.527344 -0.941406 Z M 3.527344 0 "/></g></g></g><g fill="#ffffff" fill-opacity="1"><g transform="translate(129.479304, 65.870097)"><g><path d="M 2.644531 -13.992188 L 3.292969 -13.992188 L 3.617188 -15.730469 C 3.820312 -16.785156 4.234375 -17.699219 5.9375 -17.699219 L 12.023438 -17.699219 C 12.582031 -17.699219 12.9375 -17.582031 12.9375 -16.933594 C 12.9375 -15.875 12.257812 -14.347656 11.4375 -13.171875 L 9.085938 -9.789062 C 7.671875 -7.761719 5.996094 -4.96875 5.996094 -2.351562 C 5.996094 -0.589844 6.9375 0.46875 8.320312 0.46875 C 9.585938 0.46875 10.054688 -0.265625 10.054688 -1.382812 C 10.054688 -2.085938 9.90625 -3 9.820312 -3.441406 L 9.644531 -4.46875 C 9.464844 -5.410156 9.464844 -6.027344 9.464844 -6.671875 C 9.464844 -8.320312 10.113281 -9.671875 10.671875 -10.496094 L 12.347656 -13.023438 C 13.964844 -15.464844 14.347656 -18.582031 14.347656 -20.109375 L 3.058594 -20.109375 Z M 2.644531 -13.992188 "/></g></g></g><g fill="#ffffff" fill-opacity="1"><g transform="translate(146.530323, 65.870097)"><g><path d="M 4.527344 -10.054688 C 4.527344 -13.933594 4.820312 -19.640625 8.527344 -19.640625 C 12.199219 -19.640625 12.523438 -13.933594 12.523438 -10.054688 C 12.523438 -6.203125 12.199219 -0.46875 8.527344 -0.46875 C 4.820312 -0.46875 4.527344 -6.203125 4.527344 -10.054688 Z M 1.410156 -10.054688 C 1.410156 -4.792969 4.203125 0.46875 8.527344 0.46875 C 12.816406 0.46875 15.640625 -4.792969 15.640625 -10.054688 C 15.640625 -15.347656 12.816406 -20.578125 8.527344 -20.578125 C 4.203125 -20.578125 1.410156 -15.347656 1.410156 -10.054688 Z M 1.410156 -10.054688 "/></g></g></g><g fill="#ffffff" fill-opacity="1"><g transform="translate(163.581342, 65.870097)"><g><path d="M 2.175781 -15.316406 C 2.175781 -13.199219 3.382812 -11.847656 4.96875 -11.847656 C 5.9375 -11.847656 6.46875 -12.464844 6.46875 -13.171875 C 6.46875 -13.992188 5.9375 -14.757812 4.617188 -14.964844 C 3.96875 -15.082031 3.410156 -15.40625 3.410156 -16.433594 C 3.410156 -18.023438 5.261719 -19.519531 7.171875 -19.519531 C 9.90625 -19.519531 11.464844 -17.785156 11.464844 -14.730469 C 11.464844 -12.199219 10.347656 -10.464844 8.644531 -9.027344 L 5.820312 -6.613281 C 2.558594 -3.851562 2.441406 -1.46875 2.441406 0 L 13.90625 0 L 14.316406 -6.113281 L 13.671875 -6.113281 L 13.347656 -4.378906 C 13.140625 -3.292969 12.730469 -2.410156 11.023438 -2.410156 L 5.46875 -2.410156 C 5.027344 -2.410156 4.558594 -2.5 4.558594 -3.117188 C 4.558594 -4.292969 5.644531 -5.320312 7.113281 -6.351562 L 9.996094 -8.585938 C 11.90625 -9.964844 14.582031 -11.996094 14.582031 -14.730469 C 14.582031 -18.402344 11.757812 -20.578125 7.996094 -20.578125 C 4.644531 -20.578125 2.175781 -18.34375 2.175781 -15.316406 Z M 2.175781 -15.316406 "/></g></g></g><g clip-path="url(#28e4a94bb7)"><path fill="#ffffff" d="M 0.0859375 30.027344 L 224.78125 30.027344 L 224.78125 32.277344 L 0.0859375 32.277344 Z M 0.0859375 30.027344 " fill-opacity="1" fill-rule="nonzero"/></g><g fill="#ffffff" fill-opacity="1"><g transform="translate(0.0878437, 28.529475)"><g><path d="M 1.886719 -9.605469 C 1.886719 -4.53125 4.476562 0.484375 9.710938 0.484375 C 12.410156 0.484375 14.324219 -0.835938 15.40625 -2.941406 C 16.050781 -4.207031 16.402344 -5.933594 16.511719 -7.417969 L 15.539062 -7.417969 C 15.40625 -6.152344 15.132812 -4.53125 14.488281 -3.316406 C 13.679688 -1.808594 12.25 -0.378906 9.710938 -0.378906 C 8.203125 -0.378906 6.476562 -1.671875 6.476562 -5.558594 L 6.476562 -13.652344 C 6.476562 -17.535156 7.929688 -18.832031 9.441406 -18.832031 C 12.140625 -18.832031 14.296875 -15.808594 15.109375 -11.195312 L 15.972656 -11.195312 L 15.972656 -19.476562 L 15.082031 -19.476562 L 14.59375 -18.480469 C 14.460938 -18.183594 14.324219 -17.96875 14 -17.96875 C 13.785156 -17.96875 13.460938 -18.128906 13.085938 -18.371094 C 12.003906 -19.101562 10.898438 -19.695312 9.441406 -19.695312 C 4.695312 -19.695312 1.886719 -15 1.886719 -9.605469 Z M 1.886719 -9.605469 "/></g></g></g><g fill="#ffffff" fill-opacity="1"><g transform="translate(17.890557, 28.529475)"><g><path d="M 9.011719 -20.988281 L 9.550781 -20.503906 L 13.113281 -23.199219 C 13.570312 -23.550781 13.867188 -24.011719 13.867188 -24.496094 C 13.867188 -25.144531 13.382812 -25.574219 12.734375 -25.574219 C 12.25 -25.574219 11.84375 -25.386719 11.410156 -24.710938 Z M 1.886719 -9.605469 C 1.886719 -4.425781 5.613281 0.484375 9.875 0.484375 C 14.136719 0.484375 17.859375 -4.425781 17.859375 -9.605469 C 17.859375 -14.785156 14.136719 -19.695312 9.875 -19.695312 C 5.613281 -19.695312 1.886719 -14.785156 1.886719 -9.605469 Z M 6.476562 -5.558594 L 6.476562 -13.652344 C 6.476562 -17.535156 7.824219 -18.832031 9.875 -18.832031 C 11.925781 -18.832031 13.273438 -17.535156 13.273438 -13.652344 L 13.273438 -5.558594 C 13.273438 -1.671875 11.925781 -0.378906 9.875 -0.378906 C 7.824219 -0.378906 6.476562 -1.671875 6.476562 -5.558594 Z M 6.476562 -5.558594 "/></g></g></g><g fill="#ffffff" fill-opacity="1"><g transform="translate(37.09591, 28.529475)"><g><path d="M 8.203125 -1.511719 L 8.203125 -17.699219 C 8.203125 -18.183594 8.363281 -18.34375 8.847656 -18.34375 L 11.25 -18.34375 C 13.40625 -18.34375 15.269531 -16.886719 15.269531 -13.652344 L 15.269531 -5.558594 C 15.269531 -2.320312 13.40625 -0.863281 11.25 -0.863281 L 8.847656 -0.863281 C 8.363281 -0.863281 8.203125 -1.023438 8.203125 -1.511719 Z M 1.671875 0 L 11.707031 0 C 16.1875 0 19.855469 -4.15625 19.855469 -9.765625 C 19.855469 -15.378906 16.1875 -19.207031 11.707031 -19.207031 L 1.671875 -19.207031 L 1.671875 -18.34375 L 3.5625 -18.34375 C 4.046875 -18.34375 4.207031 -18.183594 4.207031 -17.699219 L 4.207031 -1.511719 C 4.207031 -1.023438 4.046875 -0.863281 3.5625 -0.863281 L 1.671875 -0.863281 Z M 1.671875 0 "/></g></g></g><g fill="#ffffff" fill-opacity="1"><g transform="translate(58.297329, 28.529475)"><g><path d="M 1.671875 0 L 10.738281 0 L 10.738281 -0.863281 L 8.847656 -0.863281 C 8.363281 -0.863281 8.203125 -1.023438 8.203125 -1.511719 L 8.203125 -17.699219 C 8.203125 -18.183594 8.363281 -18.34375 8.847656 -18.34375 L 10.738281 -18.34375 L 10.738281 -19.207031 L 1.671875 -19.207031 L 1.671875 -18.34375 L 3.5625 -18.34375 C 4.046875 -18.34375 4.207031 -18.183594 4.207031 -17.699219 L 4.207031 -1.511719 C 4.207031 -1.023438 4.046875 -0.863281 3.5625 -0.863281 L 1.671875 -0.863281 Z M 1.671875 0 "/></g></g></g><g fill="#ffffff" fill-opacity="1"><g transform="translate(70.165808, 28.529475)"><g><path d="M 1.886719 -9.605469 C 1.886719 -4.234375 4.695312 0.484375 9.441406 0.484375 C 11.492188 0.484375 12.976562 -1.214844 13.625 -2.210938 C 13.839844 -2.5625 14.082031 -2.777344 14.460938 -2.777344 C 14.8125 -2.777344 15.027344 -2.429688 15.109375 -2.105469 L 15.753906 0.351562 L 16.617188 0.351562 L 16.617188 -8.039062 C 16.617188 -8.523438 16.78125 -8.6875 17.265625 -8.6875 L 18.5625 -8.6875 L 18.5625 -9.550781 L 9.605469 -9.550781 L 9.605469 -8.6875 L 11.976562 -8.6875 C 12.464844 -8.6875 12.625 -8.523438 12.625 -8.039062 L 12.625 -4.34375 C 12.625 -2.292969 11.382812 -0.378906 9.441406 -0.378906 C 7.714844 -0.378906 6.476562 -1.671875 6.476562 -5.558594 L 6.476562 -13.652344 C 6.476562 -17.535156 7.878906 -18.832031 9.929688 -18.832031 C 12.625 -18.832031 14.566406 -16.1875 15.78125 -11.707031 L 16.617188 -11.707031 L 16.617188 -19.476562 L 15.726562 -19.476562 L 15.269531 -18.480469 C 15.132812 -18.183594 14.972656 -17.96875 14.675781 -17.96875 C 14.433594 -17.96875 14.136719 -18.128906 13.757812 -18.371094 C 12.679688 -19.101562 11.628906 -19.695312 9.929688 -19.695312 C 5.179688 -19.695312 1.886719 -15 1.886719 -9.605469 Z M 1.886719 -9.605469 "/></g></g></g><g fill="#ffffff" fill-opacity="1"><g transform="translate(89.586949, 28.529475)"><g><path d="M 1.886719 -9.605469 C 1.886719 -4.425781 5.613281 0.484375 9.875 0.484375 C 14.136719 0.484375 17.859375 -4.425781 17.859375 -9.605469 C 17.859375 -14.785156 14.136719 -19.695312 9.875 -19.695312 C 5.613281 -19.695312 1.886719 -14.785156 1.886719 -9.605469 Z M 6.476562 -5.558594 L 6.476562 -13.652344 C 6.476562 -17.535156 7.824219 -18.832031 9.875 -18.832031 C 11.925781 -18.832031 13.273438 -17.535156 13.273438 -13.652344 L 13.273438 -5.558594 C 13.273438 -1.671875 11.925781 -0.378906 9.875 -0.378906 C 7.824219 -0.378906 6.476562 -1.671875 6.476562 -5.558594 Z M 6.476562 -5.558594 "/></g></g></g><g fill="#ffffff" fill-opacity="1"><g transform="translate(108.792302, 28.529475)"><g/></g></g><g fill="#ffffff" fill-opacity="1"><g transform="translate(116.344966, 28.529475)"><g><path d="M 1.296875 0 L 9.171875 0 L 9.171875 -0.863281 C 7.230469 -0.863281 5.773438 -1.996094 5.773438 -3.667969 L 5.773438 -13.949219 L 5.882812 -13.949219 L 15.972656 0.484375 L 16.996094 0.484375 L 16.996094 -15.539062 C 16.996094 -17.210938 18.453125 -18.34375 20.394531 -18.34375 L 20.394531 -19.207031 L 12.519531 -19.207031 L 12.519531 -18.34375 C 14.460938 -18.34375 15.917969 -17.210938 15.917969 -15.539062 L 15.917969 -6.878906 L 7.285156 -19.207031 L 1.296875 -19.207031 L 1.296875 -18.34375 L 1.78125 -18.34375 C 2.644531 -18.34375 2.96875 -18.15625 3.316406 -17.644531 L 4.398438 -16.023438 C 4.640625 -15.675781 4.695312 -15.59375 4.695312 -15.1875 L 4.695312 -3.667969 C 4.695312 -1.996094 3.238281 -0.863281 1.296875 -0.863281 Z M 1.296875 0 "/></g></g></g><g fill="#ffffff" fill-opacity="1"><g transform="translate(136.952959, 28.529475)"><g><path d="M 1.886719 -9.605469 C 1.886719 -4.425781 5.613281 0.484375 9.875 0.484375 C 14.136719 0.484375 17.859375 -4.425781 17.859375 -9.605469 C 17.859375 -14.785156 14.136719 -19.695312 9.875 -19.695312 C 5.613281 -19.695312 1.886719 -14.785156 1.886719 -9.605469 Z M 6.476562 -5.558594 L 6.476562 -13.652344 C 6.476562 -17.535156 7.824219 -18.832031 9.875 -18.832031 C 11.925781 -18.832031 13.273438 -17.535156 13.273438 -13.652344 L 13.273438 -5.558594 C 13.273438 -1.671875 11.925781 -0.378906 9.875 -0.378906 C 7.824219 -0.378906 6.476562 -1.671875 6.476562 -5.558594 Z M 6.476562 -5.558594 "/></g></g></g><g fill="#ffffff" fill-opacity="1"><g transform="translate(156.158312, 28.529475)"><g><path d="M 1.242188 -18.34375 L 2.132812 -18.34375 C 3.316406 -18.34375 3.859375 -17.96875 4.261719 -16.78125 L 10.359375 0.484375 L 11.492188 0.484375 L 16.808594 -15.890625 C 17.238281 -17.238281 18.019531 -18.34375 19.398438 -18.34375 L 20.234375 -18.34375 L 20.234375 -19.207031 L 12.949219 -19.207031 L 12.949219 -18.34375 L 14.296875 -18.34375 C 15.40625 -18.34375 15.808594 -17.375 15.808594 -16.726562 C 15.808594 -16.292969 15.621094 -15.59375 15.539062 -15.351562 L 12.4375 -5.71875 L 8.445312 -17.078125 C 8.363281 -17.292969 8.335938 -17.507812 8.335938 -17.671875 C 8.335938 -18.046875 8.742188 -18.34375 9.253906 -18.34375 L 10.601562 -18.34375 L 10.601562 -19.207031 L 1.242188 -19.207031 Z M 1.242188 -18.34375 "/></g></g></g><g fill="#ffffff" fill-opacity="1"><g transform="translate(176.982094, 28.529475)"><g><path d="M 1.671875 0 L 10.738281 0 L 10.738281 -0.863281 L 8.847656 -0.863281 C 8.363281 -0.863281 8.203125 -1.023438 8.203125 -1.511719 L 8.203125 -17.699219 C 8.203125 -18.183594 8.363281 -18.34375 8.847656 -18.34375 L 10.738281 -18.34375 L 10.738281 -19.207031 L 1.671875 -19.207031 L 1.671875 -18.34375 L 3.5625 -18.34375 C 4.046875 -18.34375 4.207031 -18.183594 4.207031 -17.699219 L 4.207031 -1.511719 C 4.207031 -1.023438 4.046875 -0.863281 3.5625 -0.863281 L 1.671875 -0.863281 Z M 1.671875 0 "/></g></g></g><g fill="#ffffff" fill-opacity="1"><g transform="translate(188.850573, 28.529475)"><g><path d="M 1.886719 -9.605469 C 1.886719 -4.425781 5.613281 0.484375 9.875 0.484375 C 14.136719 0.484375 17.859375 -4.425781 17.859375 -9.605469 C 17.859375 -14.785156 14.136719 -19.695312 9.875 -19.695312 C 5.613281 -19.695312 1.886719 -14.785156 1.886719 -9.605469 Z M 6.476562 -5.558594 L 6.476562 -13.652344 C 6.476562 -17.535156 7.824219 -18.832031 9.875 -18.832031 C 11.925781 -18.832031 13.273438 -17.535156 13.273438 -13.652344 L 13.273438 -5.558594 C 13.273438 -1.671875 11.925781 -0.378906 9.875 -0.378906 C 7.824219 -0.378906 6.476562 -1.671875 6.476562 -5.558594 Z M 6.476562 -5.558594 "/></g></g></g><g fill="#ffffff" fill-opacity="1"><g transform="translate(208.055937, 28.529475)"><g><path d="M 2.429688 -8.253906 L 2.589844 0.269531 L 3.425781 0.269531 L 3.5625 -0.59375 C 3.640625 -1.1875 3.886719 -1.511719 4.261719 -1.511719 C 4.613281 -1.511719 4.964844 -1.242188 5.664062 -0.703125 C 6.394531 -0.109375 7.636719 0.484375 9.363281 0.484375 C 13.488281 0.484375 15.378906 -2.402344 15.378906 -5.070312 C 15.378906 -6.878906 14.433594 -8.742188 12.949219 -9.710938 L 7.148438 -13.460938 C 5.910156 -14.269531 4.75 -15.324219 4.75 -16.566406 C 4.75 -18.074219 5.636719 -18.832031 7.554688 -18.832031 C 10.199219 -18.832031 12.597656 -15.917969 13.597656 -12.195312 L 14.460938 -12.195312 L 14.191406 -19.207031 L 13.328125 -19.207031 L 13.164062 -18.480469 C 13.113281 -18.128906 12.921875 -17.859375 12.570312 -17.859375 C 12.300781 -17.859375 11.953125 -18.074219 11.601562 -18.34375 C 11.0625 -18.722656 9.550781 -19.695312 7.769531 -19.695312 C 5.070312 -19.695312 2.480469 -18.238281 2.480469 -14.515625 C 2.480469 -12.03125 4.15625 -10.46875 5.503906 -9.605469 L 11.277344 -5.882812 C 12.355469 -5.179688 13.21875 -4.453125 13.21875 -3.453125 C 13.21875 -2.320312 12.761719 -0.378906 9.523438 -0.378906 C 6.449219 -0.378906 4.046875 -4.289062 3.292969 -8.253906 Z M 2.429688 -8.253906 "/></g></g></g></svg>